<svg width="364" height="252" viewBox="0 0 364 252" fill="none" xmlns="http://www.w3.org/2000/svg">
<g clip-path="url(#clip0_44_3)">
<path fill-rule="evenodd" clip-rule="evenodd" d="M2.42676 216.749L38.2232 76.5968H98.2884L93.4347 92.3715H150.916C154.539 92.3715 158.041 91.0652 160.779 88.6922L161.159 88.3631C168.168 82.2879 167.839 71.3098 160.477 65.6659C157.92 63.705 154.787 62.6422 151.564 62.6422H45.5038C70.5816 47.272 126.926 17.0001 161.387 19.4269C184.603 21.0618 210.053 27.3936 222.772 46.8839C233.862 63.8793 235.441 86.914 201.431 110.573C296.079 208.723 100.918 226.907 2.42676 216.749ZM72.1995 166.86L81.907 132.883H135.899C139.453 132.883 142.919 133.999 145.806 136.072C155.247 142.85 155.247 156.894 145.806 163.671C142.919 165.745 139.453 166.86 135.899 166.86H72.1995Z" fill="white"/>
<path d="M49.1442 17H135.298C98.1624 25.4198 51.0382 50.1263 38.83 60.3703L49.1442 17Z" fill="white"/>
<path d="M240.023 164.277C218.937 236.705 64.4318 227.802 0 224.498C295.108 280.316 350.077 110.637 364.032 17H314.281L294.259 84.3458L270.028 30.5538C266.312 22.3044 258.105 17 249.058 17H198.397C260.525 41.2688 245.721 92.2332 220.239 113.468L226.078 120.443C236.5 132.891 244.561 148.69 240.023 164.277Z" fill="white"/>
<path d="M356.144 20.6404C354.569 81.6634 312.835 205.991 160.223 227.795C155.704 228.517 151.424 229.03 147.433 229.352C151.78 228.912 156.043 228.392 160.223 227.795C223.948 217.601 335.295 165.675 356.144 20.6404Z" fill="#D9D9D9"/>
<path d="M87.3675 81.3124H43.077L10.3545 208.735L47.9307 89.1997L87.3675 81.3124Z" fill="#CFCFCF"/>
<path d="M65.5257 59.4705H59.4585C110.908 26.9503 142.781 22.8651 152.287 24.8874C132.386 25.3728 86.1541 48.145 65.5257 59.4705Z" fill="#D9D9D9"/>
<path d="M222.059 60.0771C223.879 61.2906 229.947 86.1661 200.217 104.368C207.498 97.087 219.147 92.1119 222.059 60.0771Z" fill="#D9D9D9"/>
<path d="M214.779 20.6404C234.396 30.1457 264.772 62.14 229.34 114.075C248.755 94.4579 273.024 48.3068 214.779 20.6404Z" fill="#D9D9D9"/>
<path d="M49.7509 35.8083L49.2434 37.1615C48.3719 41.9698 61.1353 39.3156 70.0092 36.6787C71.01 36.3178 71.949 36.0227 72.8062 35.8083C71.9383 36.0914 70.9979 36.3849 70.0092 36.6787C61.9435 39.5877 49.8678 46.7713 44.2904 50.3696L49.2434 37.1615C49.3157 36.7631 49.4815 36.3135 49.7509 35.8083Z" fill="#D9D9D9"/>
</g>
<defs>
<clipPath id="clip0_44_3">
<rect width="364" height="252" fill="white"/>
</clipPath>
</defs>
</svg>
